<?xml version="1.0" encoding="utf-8"?>
<!-- Generator: Adobe Illustrator 21.1.0, SVG Export Plug-In . SVG Version: 6.00 Build 0)  -->
<svg version="1.1" id="Layer_1" xmlns="http://www.w3.org/2000/svg" xmlns:xlink="http://www.w3.org/1999/xlink" x="0px" y="0px"
	 viewBox="0 0 454.4 176.3" style="enable-background:new 0 0 454.4 176.3;" xml:space="preserve">
<style type="text/css">
	.st0{fill-rule:evenodd;clip-rule:evenodd;fill:#0078BF;}
	.st1{fill-rule:evenodd;clip-rule:evenodd;fill:#FFFFFF;}
	.st2{fill:#9B9A9A;}
</style>
<path class="st0" d="M83.2,84H9.1V18.8h74.1V84z M113,73.9h8.4l9.5-33.5h0.1l9.3,33.5h8.3l12.9-43.8h-8.3l-8.7,32.7h-0.1l-9.1-32.7
	H127l-9.4,32.7h-0.1l-8.4-32.7h-8.3L113,73.9z M182,73.6h7.4V55.2l15.9-25H197l-11.1,18.8l-11.3-18.8H166l16,25V73.6z M211.9,73.8
	h7.8V43.9h0.2l23,29.9h6.8V30.3h-7.8v29.3h-0.1l-22.9-29.3h-7V73.8z M261,73.9h18.6c13.8,0,20.8-9.8,20.8-21.8
	c0-12-6.9-21.8-20.8-21.8H261V73.9z M268.4,37.3l8.2,0.1c9.8,0,15.6,5.9,15.6,14.7c0,8.7-5.7,14.7-15.6,14.7l-8.2-0.1V37.3z
	 M308.8,73.7h7.8V55.4h20.2v18.3h7.8V30.2h-7.8V48h-20.2V30.2h-7.8V73.7z M351.5,73.8h8.6l4.2-10.5h19.6l4,10.5h8.9l-18.3-43.6h-8.8
	L351.5,73.8z M374,39.1h0.2l7.1,18h-14.5L374,39.1z M403.2,73.7h7.7V42.7h0.1L424.5,63h0l13.5-20.3h0.1v31.1h7.7V30.3h-7.5
	l-13.5,20.6h-0.1l-13.8-20.6h-7.7V73.7z"/>
<g>
	<path class="st1" d="M39.4,38.9c1,0.2,3.1,1.3,4.3,3.4L48,49l4.4-6.8c1.2-2,3.3-3.2,4.3-3.4c1-0.1,1.5-0.6,0.8-1.7
		c-0.7-1.1-2.7-2.5-4.9-2c-0.4-1.9-2.3-3.3-4.5-3.3c-2.2,0-4.1,1.4-4.5,3.3c-2.2-0.4-4.2,1-4.9,2C37.9,38.2,38.4,38.8,39.4,38.9z"/>
	<path class="st1" d="M31.2,42.7c1.5-0.1,3.6,1.3,4.7,3.1L43,57l3.6-5.6L41.8,44c-3.2-5.1-7.8-4.1-9.1-3.7
		C31.4,40.7,29.8,42.7,31.2,42.7z"/>
	<path class="st1" d="M60.1,45.8c1.1-1.8,3.2-3.1,4.7-3.1c1.4,0.1-0.1-2-1.5-2.4C62,40,57.4,38.9,54.2,44L43.1,61.7l-8.5-13.4
		c-3.2-5.1-7-3.6-8.4-3.2c-1.3,0.4-2.2,2-0.8,2.2c1.4,0.2,2.1,0.9,3.6,3.2l10.8,17.2h0c0.7,1,1.9,1.7,3.3,1.7c1.4,0,2.6-0.7,3.3-1.7
		h0L60.1,45.8z"/>
	<path class="st1" d="M70,45.1c-1.3-0.4-5.2-1.9-8.4,3.2l-11.4,18c0,0,0,0,0,0l-0.5,0.9c0.5,1.4,1.9,2.3,3.4,2.3
		c1.3,0,2.4-0.7,3.1-1.7h0l11-17.2c1.5-2.3,2.2-3,3.6-3.2C72.2,47.2,71.3,45.5,70,45.1z"/>
</g>
<path class="st2" d="M117.9,119.7c-1.8,0.9-4.1,1.3-6.9,1.3c-3.7,0-6.6-1.1-8.7-3.3c-2.1-2.2-3.2-5.1-3.2-8.8c0-3.9,1.2-7.1,3.6-9.5
	c2.4-2.4,5.5-3.6,9.3-3.6c2.4,0,4.3,0.3,6,0.9v5.3c-1.6-1-3.5-1.5-5.5-1.5c-2.3,0-4.1,0.7-5.5,2.2c-1.4,1.4-2.1,3.4-2.1,5.8
	c0,2.4,0.7,4.2,2,5.6c1.3,1.4,3.1,2.1,5.3,2.1c2.1,0,4.1-0.5,5.8-1.6V119.7z M129.8,121c-2.9,0-5.1-0.8-6.8-2.4
	c-1.6-1.6-2.5-3.8-2.5-6.6c0-2.9,0.9-5.1,2.6-6.8c1.7-1.6,4-2.4,6.9-2.4c2.9,0,5.1,0.8,6.7,2.4c1.6,1.6,2.4,3.8,2.4,6.5
	c0,2.9-0.8,5.2-2.5,6.9C135,120.2,132.7,121,129.8,121z M129.9,106.9c-1.3,0-2.2,0.4-2.9,1.3c-0.7,0.9-1,2.1-1,3.7c0,3.3,1.3,5,4,5
	c2.5,0,3.8-1.7,3.8-5.2C133.8,108.5,132.5,106.9,129.9,106.9z M159.2,120.6h-5.3v-9.7c0-2.7-1-4-2.9-4c-0.9,0-1.7,0.4-2.3,1.1
	c-0.6,0.7-0.9,1.6-0.9,2.7v9.9h-5.3v-17.4h5.3v2.8h0.1c1.3-2.1,3.1-3.2,5.5-3.2c3.8,0,5.7,2.4,5.7,7.2V120.6z M176.5,120
	c-1.2,0.7-2.9,1.1-5.2,1.1c-2.6,0-4.8-0.8-6.4-2.4c-1.6-1.6-2.5-3.7-2.5-6.3c0-3,0.9-5.3,2.6-7c1.8-1.7,4.1-2.6,7-2.6
	c2,0,3.5,0.3,4.4,0.8v4.6c-1.1-0.8-2.3-1.3-3.7-1.3c-1.5,0-2.7,0.5-3.6,1.4c-0.9,0.9-1.3,2.1-1.3,3.7c0,1.5,0.4,2.8,1.3,3.6
	c0.9,0.9,2,1.3,3.5,1.3c1.3,0,2.6-0.4,3.9-1.3V120z M188.2,121c-2.9,0-5.1-0.8-6.8-2.4c-1.6-1.6-2.5-3.8-2.5-6.6
	c0-2.9,0.8-5.1,2.6-6.8c1.7-1.6,4-2.4,6.9-2.4c2.9,0,5.1,0.8,6.7,2.4c1.6,1.6,2.4,3.8,2.4,6.5c0,2.9-0.8,5.2-2.5,6.9
	C193.4,120.2,191.1,121,188.2,121z M188.3,106.9c-1.3,0-2.2,0.4-2.9,1.3c-0.7,0.9-1,2.1-1,3.7c0,3.3,1.3,5,4,5
	c2.5,0,3.8-1.7,3.8-5.2C192.2,108.5,190.9,106.9,188.3,106.9z M212.2,108c-0.6-0.4-1.4-0.5-2.2-0.5c-1.2,0-2.1,0.4-2.7,1.3
	c-0.7,0.9-1,2-1,3.5v8.3H201v-17.4h5.3v3.2h0.1c0.8-2.4,2.4-3.5,4.5-3.5c0.6,0,1,0.1,1.3,0.2V108z M231.6,120.6h-5.3v-2.4h-0.1
	c-1.2,1.9-3,2.8-5.3,2.8c-2.1,0-3.9-0.8-5.2-2.3c-1.3-1.5-2-3.7-2-6.4c0-2.9,0.7-5.2,2.2-6.9c1.4-1.7,3.3-2.6,5.7-2.6
	c2.2,0,3.8,0.8,4.6,2.4h0.1V94.8h5.3V120.6z M226.3,112.1v-1.3c0-1.1-0.3-2.1-1-2.8c-0.6-0.7-1.5-1.1-2.5-1.1
	c-1.2,0-2.1,0.5-2.8,1.4c-0.7,0.9-1,2.2-1,3.8c0,1.5,0.3,2.7,1,3.5c0.6,0.8,1.5,1.2,2.7,1.2c1.1,0,2-0.4,2.6-1.3
	C226,114.7,226.3,113.6,226.3,112.1z M251.5,113.4h-11.2c0.2,2.5,1.8,3.8,4.7,3.8c1.9,0,3.6-0.5,5-1.4v3.9c-1.6,0.9-3.7,1.3-6.2,1.3
	c-2.8,0-4.9-0.8-6.5-2.3c-1.5-1.6-2.3-3.7-2.3-6.5c0-2.9,0.8-5.2,2.5-6.9c1.7-1.7,3.7-2.5,6.1-2.5c2.5,0,4.5,0.8,5.8,2.3
	c1.4,1.5,2.1,3.6,2.1,6.1V113.4z M246.6,110.1c0-2.5-1-3.7-3-3.7c-0.9,0-1.6,0.4-2.2,1.1c-0.6,0.7-1,1.6-1.1,2.7H246.6z
	 M284.9,120.6h-6.2l-3.7-6.3c-0.3-0.5-0.5-0.9-0.8-1.3c-0.3-0.4-0.5-0.7-0.8-1c-0.3-0.3-0.5-0.5-0.8-0.6c-0.3-0.1-0.6-0.2-0.9-0.2
	h-1.5v9.3h-5.4V96.2h8.6c5.8,0,8.8,2.2,8.8,6.6c0,0.8-0.1,1.6-0.4,2.4c-0.3,0.7-0.6,1.4-1.1,1.9c-0.5,0.6-1,1.1-1.7,1.5
	c-0.7,0.4-1.4,0.7-2.2,1v0.1c0.4,0.1,0.7,0.3,1,0.6c0.3,0.3,0.7,0.6,1,0.9c0.3,0.3,0.6,0.7,0.9,1.1c0.3,0.4,0.5,0.8,0.8,1.1
	L284.9,120.6z M270.1,100.3v6.8h2.4c1.2,0,2.1-0.3,2.8-1c0.7-0.7,1.1-1.5,1.1-2.6c0-2.1-1.3-3.2-3.8-3.2H270.1z M302.1,113.4h-11.2
	c0.2,2.5,1.8,3.8,4.7,3.8c1.9,0,3.6-0.5,5-1.4v3.9c-1.6,0.9-3.7,1.3-6.2,1.3c-2.8,0-4.9-0.8-6.5-2.3c-1.5-1.6-2.3-3.7-2.3-6.5
	c0-2.9,0.8-5.2,2.5-6.9c1.7-1.7,3.7-2.5,6.1-2.5c2.5,0,4.5,0.8,5.8,2.3c1.4,1.5,2.1,3.6,2.1,6.1V113.4z M297.2,110.1
	c0-2.5-1-3.7-3-3.7c-0.9,0-1.6,0.4-2.2,1.1c-0.6,0.7-1,1.6-1.1,2.7H297.2z M304.1,120.1v-4.4c0.9,0.5,1.7,0.9,2.6,1.2
	c0.9,0.3,1.7,0.4,2.5,0.4c0.9,0,1.7-0.1,2.2-0.4c0.5-0.3,0.8-0.7,0.8-1.2c0-0.3-0.1-0.6-0.4-0.9c-0.2-0.2-0.6-0.4-1-0.6
	c-0.4-0.2-0.8-0.3-1.3-0.5c-0.5-0.1-0.9-0.3-1.3-0.5c-0.7-0.3-1.3-0.5-1.8-0.8c-0.5-0.3-1-0.6-1.3-1c-0.4-0.4-0.6-0.9-0.8-1.4
	c-0.2-0.5-0.3-1.1-0.3-1.9c0-1,0.2-1.8,0.6-2.5c0.4-0.7,1-1.3,1.7-1.7c0.7-0.4,1.5-0.8,2.4-1c0.9-0.2,1.8-0.3,2.8-0.3
	c0.8,0,1.5,0.1,2.3,0.2c0.8,0.1,1.6,0.3,2.3,0.5v4.1c-0.7-0.4-1.4-0.7-2.2-0.9c-0.8-0.2-1.5-0.3-2.3-0.3c-0.3,0-0.7,0-1,0.1
	c-0.3,0.1-0.6,0.2-0.8,0.3c-0.2,0.1-0.4,0.3-0.6,0.5c-0.1,0.2-0.2,0.4-0.2,0.6c0,0.3,0.1,0.6,0.3,0.8c0.2,0.2,0.5,0.4,0.8,0.6
	c0.3,0.2,0.7,0.3,1.1,0.4c0.4,0.1,0.8,0.3,1.2,0.4c0.7,0.2,1.3,0.5,1.9,0.8c0.6,0.3,1.1,0.6,1.5,1c0.4,0.4,0.7,0.9,0.9,1.4
	c0.2,0.5,0.3,1.2,0.3,1.9c0,1-0.2,1.9-0.7,2.6c-0.4,0.7-1,1.3-1.8,1.8c-0.7,0.5-1.6,0.8-2.5,1c-1,0.2-2,0.3-3,0.3
	C307.5,121,305.7,120.7,304.1,120.1z M328.6,121c-2.9,0-5.1-0.8-6.8-2.4c-1.6-1.6-2.5-3.8-2.5-6.6c0-2.9,0.9-5.1,2.6-6.8
	c1.7-1.6,4-2.4,6.9-2.4c2.9,0,5.1,0.8,6.7,2.4c1.6,1.6,2.4,3.8,2.4,6.5c0,2.9-0.8,5.2-2.5,6.9C333.8,120.2,331.5,121,328.6,121z
	 M328.7,106.9c-1.3,0-2.2,0.4-2.9,1.3c-0.7,0.9-1,2.1-1,3.7c0,3.3,1.3,5,4,5c2.5,0,3.8-1.7,3.8-5.2
	C332.6,108.5,331.3,106.9,328.7,106.9z M352.7,108c-0.6-0.4-1.4-0.5-2.2-0.5c-1.2,0-2.1,0.4-2.7,1.3c-0.6,0.9-1,2-1,3.5v8.3h-5.3
	v-17.4h5.3v3.2h0.1c0.8-2.4,2.4-3.5,4.5-3.5c0.6,0,1,0.1,1.3,0.2V108z M365.6,120.4c-0.8,0.4-2,0.6-3.5,0.6c-3.7,0-5.6-2-5.6-5.9v-8
	h-2.8v-4h2.8v-3.8l5.3-1.5v5.3h3.9v4h-3.9v7c0,1.8,0.7,2.7,2.1,2.7c0.6,0,1.1-0.2,1.7-0.5V120.4z M108.9,156.6v-4.4
	c0.9,0.5,1.7,0.9,2.6,1.2c0.9,0.3,1.7,0.4,2.5,0.4c0.9,0,1.7-0.1,2.2-0.4c0.5-0.3,0.8-0.7,0.8-1.2c0-0.3-0.1-0.6-0.4-0.9
	c-0.2-0.2-0.6-0.4-0.9-0.6c-0.4-0.2-0.8-0.3-1.3-0.5c-0.5-0.1-0.9-0.3-1.3-0.5c-0.7-0.3-1.3-0.5-1.8-0.8c-0.5-0.3-1-0.7-1.3-1
	c-0.4-0.4-0.6-0.9-0.8-1.4c-0.2-0.5-0.3-1.1-0.3-1.9c0-1,0.2-1.8,0.6-2.5c0.4-0.7,1-1.3,1.7-1.7c0.7-0.4,1.5-0.8,2.4-1
	c0.9-0.2,1.8-0.3,2.8-0.3c0.8,0,1.5,0.1,2.3,0.2c0.8,0.1,1.6,0.3,2.3,0.5v4.1c-0.7-0.4-1.4-0.7-2.2-0.9c-0.8-0.2-1.5-0.3-2.3-0.3
	c-0.3,0-0.7,0-1,0.1c-0.3,0.1-0.6,0.2-0.8,0.3c-0.2,0.1-0.4,0.3-0.6,0.5c-0.1,0.2-0.2,0.4-0.2,0.6c0,0.3,0.1,0.6,0.3,0.8
	c0.2,0.2,0.5,0.4,0.8,0.6c0.3,0.2,0.7,0.3,1.1,0.4c0.4,0.1,0.8,0.3,1.2,0.4c0.7,0.3,1.3,0.5,1.9,0.8c0.6,0.3,1.1,0.6,1.5,1
	c0.4,0.4,0.7,0.9,0.9,1.4c0.2,0.5,0.3,1.2,0.3,1.9c0,1-0.2,1.9-0.7,2.6c-0.4,0.7-1,1.3-1.8,1.8c-0.7,0.5-1.6,0.8-2.5,1
	c-1,0.2-2,0.3-3,0.3C112.2,157.5,110.5,157.2,108.9,156.6z M130.4,157.1h-5v-25.8h5V157.1z M105.8,157.1h-5.3v-25.8h5.3V157.1z
	 M149.2,157.1h-5v-2.5h-0.1c-1.2,2-2.9,2.9-5.1,2.9c-1.7,0-3-0.5-3.9-1.4c-1-1-1.4-2.2-1.4-3.8c0-3.4,2-5.3,5.9-5.8l4.7-0.6
	c0-1.9-1-2.9-3.1-2.9c-2,0-4,0.6-5.8,1.9v-4c0.7-0.4,1.7-0.7,3-1c1.3-0.3,2.4-0.4,3.5-0.4c4.9,0,7.4,2.5,7.4,7.4V157.1z M144.3,150
	v-1.2l-3.1,0.4c-1.7,0.2-2.6,1-2.6,2.4c0,0.6,0.2,1.1,0.6,1.5c0.4,0.4,1,0.6,1.7,0.6c1,0,1.8-0.3,2.4-1
	C143.9,152,144.3,151.1,144.3,150z M208.2,157.1h-5v-2.5h-0.1c-1.2,2-2.9,2.9-5.1,2.9c-1.7,0-3-0.5-3.9-1.4c-1-1-1.4-2.2-1.4-3.8
	c0-3.4,2-5.3,5.9-5.8l4.7-0.6c0-1.9-1-2.9-3.1-2.9c-2.1,0-4,0.6-5.8,1.9v-4c0.7-0.4,1.8-0.7,3-1c1.3-0.3,2.5-0.4,3.5-0.4
	c4.9,0,7.4,2.5,7.4,7.4V157.1z M203.2,150v-1.2l-3.1,0.4c-1.7,0.2-2.6,1-2.6,2.4c0,0.6,0.2,1.1,0.6,1.5c0.4,0.4,1,0.6,1.7,0.6
	c1,0,1.8-0.3,2.4-1C202.9,152,203.2,151.1,203.2,150z M223.6,144.5c-0.6-0.4-1.4-0.5-2.2-0.5c-1.2,0-2.1,0.4-2.7,1.3
	c-0.6,0.9-1,2-1,3.5v8.3h-5.3v-17.4h5.3v3.2h0.1c0.8-2.4,2.4-3.5,4.5-3.5c0.6,0,1,0.1,1.3,0.2V144.5z M243,155.1
	c0,3.2-0.9,5.7-2.8,7.5c-1.8,1.8-4.5,2.7-8,2.7c-2.3,0-4.2-0.3-5.5-1v-4.5c1.8,1,3.6,1.6,5.4,1.6c1.8,0,3.2-0.5,4.2-1.4
	c1-1,1.5-2.3,1.5-3.9v-1.4h-0.1c-1.2,2-3,2.9-5.4,2.9c-2.2,0-3.9-0.8-5.2-2.3c-1.3-1.6-1.9-3.7-1.9-6.3c0-2.9,0.7-5.3,2.2-7
	c1.4-1.7,3.3-2.6,5.7-2.6c2.1,0,3.7,0.8,4.7,2.4h0.1v-2h5.3V155.1z M237.8,148.7v-1.4c0-1.1-0.3-2-1-2.8c-0.6-0.8-1.5-1.2-2.5-1.2
	c-1.2,0-2.1,0.5-2.8,1.4c-0.7,0.9-1,2.2-1,3.9c0,1.5,0.3,2.6,1,3.4c0.6,0.8,1.5,1.3,2.6,1.3c1.1,0,2-0.4,2.7-1.3
	C237.4,151.3,237.8,150.1,237.8,148.7z M261.8,157.1h-5v-2.5h-0.1c-1.2,2-2.9,2.9-5.1,2.9c-1.7,0-3-0.5-3.9-1.4
	c-1-1-1.4-2.2-1.4-3.8c0-3.4,2-5.3,5.9-5.8l4.7-0.6c0-1.9-1-2.9-3.1-2.9c-2.1,0-4,0.6-5.9,1.9v-4c0.7-0.4,1.8-0.7,3-1
	c1.3-0.3,2.5-0.4,3.5-0.4c4.9,0,7.4,2.5,7.4,7.4V157.1z M256.8,150v-1.2l-3.1,0.4c-1.7,0.2-2.6,1-2.6,2.4c0,0.6,0.2,1.1,0.6,1.5
	c0.4,0.4,1,0.6,1.7,0.6c1,0,1.8-0.3,2.4-1C256.5,152,256.8,151.1,256.8,150z M277.2,144.5c-0.6-0.4-1.4-0.5-2.2-0.5
	c-1.2,0-2.1,0.4-2.7,1.3c-0.7,0.9-1,2-1,3.5v8.3H266v-17.4h5.3v3.2h0.1c0.8-2.4,2.4-3.5,4.5-3.5c0.6,0,1,0.1,1.3,0.2V144.5z
	 M282.4,136.9c-0.9,0-1.6-0.3-2.2-0.8c-0.6-0.5-0.9-1.2-0.9-2c0-0.8,0.3-1.5,0.9-2c0.6-0.5,1.3-0.8,2.2-0.8c0.9,0,1.6,0.3,2.2,0.8
	c0.6,0.5,0.8,1.2,0.8,2c0,0.8-0.3,1.5-0.8,2C284,136.7,283.3,136.9,282.4,136.9z M285,157.1h-5.3v-17.4h5.3V157.1z M299.9,156.9
	c-0.8,0.4-2,0.6-3.5,0.6c-3.7,0-5.6-2-5.6-5.9v-8h-2.8v-4h2.8v-3.8l5.3-1.5v5.3h3.9v4H296v7c0,1.8,0.7,2.7,2.1,2.7
	c0.6,0,1.1-0.2,1.7-0.5V156.9z M317.2,157.1h-5v-2.5h-0.1c-1.2,2-2.9,2.9-5.1,2.9c-1.7,0-3-0.5-3.9-1.4c-1-1-1.4-2.2-1.4-3.8
	c0-3.4,2-5.3,5.9-5.8l4.7-0.6c0-1.9-1-2.9-3.1-2.9c-2.1,0-4,0.6-5.9,1.9v-4c0.7-0.4,1.8-0.7,3-1c1.3-0.3,2.4-0.4,3.5-0.4
	c4.9,0,7.4,2.5,7.4,7.4V157.1z M312.2,150v-1.2l-3.1,0.4c-1.7,0.2-2.6,1-2.6,2.4c0,0.6,0.2,1.1,0.6,1.5c0.4,0.4,1,0.6,1.7,0.6
	c1,0,1.8-0.3,2.4-1C311.9,152,312.2,151.1,312.2,150z M189.4,132h-6.2l-6.4,13.5l-6.4-13.5h-6.2v25.3h5.1v-17.7l5.5,11.8h3.7
	l5.5-11.8v17.8h5.5V132z"/>
</svg>
